<?xml version="1.0" standalone="no"?>
<!DOCTYPE svg PUBLIC "-//W3C//DTD SVG 20010904//EN"
 "http://www.w3.org/TR/2001/REC-SVG-20010904/DTD/svg10.dtd">
<svg version="1.0" xmlns="http://www.w3.org/2000/svg"
 width="700.000000pt" height="634.000000pt" viewBox="0 0 700.000000 634.000000"
 preserveAspectRatio="xMidYMid meet">

<g transform="translate(0.000000,634.000000) scale(0.100000,-0.100000)"
fill="#000000" stroke="none">
<path d="M2310 4922 c0 -4 13 -31 28 -59 71 -137 191 -262 352 -368 87 -57
171 -105 185 -105 20 0 -4 20 -51 43 -31 16 -54 30 -51 33 3 3 19 -2 37 -11
18 -9 34 -14 38 -11 7 8 9 6 -71 50 -111 61 -316 226 -281 226 6 0 19 -9 29
-20 37 -41 260 -184 328 -209 38 -15 35 4 -5 30 -18 12 -24 18 -13 14 11 -5
31 -8 45 -9 18 -1 33 -13 51 -41 15 -22 42 -55 62 -74 l36 -34 -15 48 c-7 27
-14 61 -14 77 0 16 -6 30 -12 32 -63 18 -212 78 -295 118 -138 66 -244 137
-320 213 -35 35 -63 60 -63 57z"/>
<path d="M4535 4881 c-98 -108 -330 -243 -551 -321 l-91 -32 -6 -51 c-4 -29
-9 -63 -13 -77 l-7 -25 26 24 c15 14 43 48 63 77 21 31 42 50 49 47 8 -2 23 1
35 7 12 6 24 9 27 6 3 -3 -6 -11 -21 -17 -14 -7 -26 -18 -26 -26 0 -27 242
114 338 198 48 42 52 35 7 -12 -56 -57 -135 -117 -238 -179 -91 -54 -107 -73
-41 -46 l39 16 -25 -20 c-14 -10 -37 -25 -52 -31 -16 -6 -28 -16 -28 -21 0
-12 109 47 205 110 88 59 215 179 270 257 46 65 88 142 83 153 -2 4 -21 -13
-43 -37z"/>
<path d="M3423 4887 c-47 -21 -13 -88 36 -72 20 6 31 31 24 53 -8 21 -36 30
-60 19z m25 -49 c12 -2 13 -6 5 -11 -6 -4 -19 0 -27 9 -9 8 -13 21 -9 27 5 8
9 7 11 -5 2 -9 11 -18 20 -20z"/>
<path d="M3142 4818 c-36 -36 6 -91 46 -62 26 18 28 37 6 58 -19 19 -36 20
-52 4z m27 -53 c1 -5 -6 -2 -15 7 -10 9 -13 21 -8 29 5 9 9 8 15 -7 4 -10 8
-23 8 -29z"/>
<path d="M3684 4816 c-13 -33 0 -51 36 -51 32 0 35 2 35 30 0 27 -4 30 -33 33
-22 2 -34 -2 -38 -12z m23 -26 c1 -11 -2 -18 -8 -15 -11 7 -12 35 -1 35 4 0 8
-9 9 -20z"/>
<path d="M3555 4800 c-4 -6 -4 -22 -1 -35 14 -54 -61 -50 -84 4 -7 17 -16 31
-20 31 -5 0 -17 -17 -27 -37 -20 -42 -51 -54 -75 -29 -9 9 -13 25 -11 40 4 21
1 26 -16 26 -29 0 -38 -27 -15 -45 15 -11 17 -17 8 -32 -15 -22 -73 -22 -90 1
-6 9 -17 16 -23 16 -14 0 27 -80 44 -87 6 -2 29 1 50 6 31 7 34 9 15 11 l-25
1 25 10 c49 20 211 23 283 6 73 -18 73 -18 90 19 23 48 22 50 -14 20 -31 -27
-46 -31 -73 -20 -18 7 -22 54 -5 54 6 0 9 10 7 22 -3 25 -32 36 -43 18z m20
-20 c3 -5 1 -10 -4 -10 -6 0 -11 5 -11 10 0 6 2 10 4 10 3 0 8 -4 11 -10z
m-255 -10 c0 -5 -2 -10 -4 -10 -3 0 -8 5 -11 10 -3 6 -1 10 4 10 6 0 11 -4 11
-10z m-55 -100 c3 -5 1 -10 -4 -10 -6 0 -11 5 -11 10 0 6 2 10 4 10 3 0 8 -4
11 -10z"/>
<path d="M3413 4673 c31 -2 83 -2 115 0 31 2 5 3 -58 3 -63 0 -89 -1 -57 -3z"/>
<path d="M3625 4655 c22 -8 29 -12 15 -9 -14 3 -80 8 -148 11 -121 5 -242 -9
-242 -28 0 -5 15 -5 33 -1 44 10 316 9 348 -1 21 -7 28 -5 33 9 8 21 9 21 -39
28 l-40 6 40 -15z"/>
<path d="M3301 4619 c-65 -11 -72 -16 -48 -34 40 -29 327 -33 392 -5 l30 12
-39 18 c-31 14 -65 18 -160 18 -67 0 -145 -4 -175 -9z m285 -10 c25 -7 42 -15
37 -20 -14 -13 -67 -13 -93 1 -31 17 -155 19 -172 2 -14 -14 -74 -16 -83 -3
-3 6 16 13 42 16 27 3 55 8 63 9 38 9 166 5 206 -5z"/>
<path d="M2190 4554 c111 -131 300 -255 478 -314 99 -32 122 -36 122 -21 0 5
-19 12 -42 15 -24 4 -50 11 -58 17 -11 8 -8 9 14 4 71 -15 86 -17 86 -9 0 5
-53 28 -118 52 -64 23 -144 56 -177 72 -72 36 -58 33 105 -30 150 -57 190 -67
190 -48 0 9 -23 22 -56 32 -70 22 -65 31 7 12 37 -9 58 -10 67 -4 6 6 12 9 13
7 0 -2 1 -44 2 -94 2 -107 30 -176 98 -240 l42 -40 -28 38 c-26 35 -22 54 5
22 7 -8 17 -15 23 -15 6 0 0 11 -13 25 -30 32 -20 42 17 19 28 -18 28 -18 12
1 -33 41 -35 51 -6 32 31 -20 35 -13 10 16 -17 19 -17 19 7 12 14 -4 32 -10
40 -13 22 -7 4 8 -71 61 -67 47 -129 113 -129 138 0 7 13 -2 29 -21 16 -19 31
-33 34 -30 3 3 1 25 -5 50 l-10 45 -147 28 c-226 44 -441 121 -541 196 l-35
26 35 -41z"/>
<path d="M4695 4565 c-89 -70 -279 -139 -514 -186 -86 -18 -159 -34 -163 -38
-4 -3 -10 -26 -13 -51 l-6 -45 24 27 c14 15 32 37 41 50 12 16 19 19 24 11 6
-9 21 -9 66 3 78 20 84 10 7 -12 -39 -10 -61 -22 -61 -31 0 -11 8 -13 33 -8
34 8 173 57 267 94 30 13 51 18 45 13 -14 -13 -164 -75 -262 -109 -81 -27
-113 -52 -53 -39 74 15 93 15 45 0 -27 -9 -57 -19 -65 -21 -11 -4 -12 -6 -2
-10 43 -16 309 100 424 185 69 51 176 149 189 173 12 24 11 23 -26 -6z"/>
<path d="M3026 4540 c-13 -65 19 -153 73 -204 35 -34 43 -25 9 11 -12 13 -17
23 -11 23 6 0 16 -7 23 -15 7 -8 17 -15 23 -15 6 0 1 10 -11 23 -28 30 -28 42
0 23 31 -22 45 -20 23 4 -20 22 -7 28 14 8 11 -11 11 -9 1 10 -11 23 -11 24
22 17 28 -6 25 -2 -27 29 -33 20 -76 54 -97 75 l-36 38 -6 -27z"/>
<path d="M3821 4528 c-18 -21 -61 -54 -95 -74 -50 -29 -55 -34 -28 -29 33 7
41 -2 20 -24 -11 -11 -9 -11 9 -2 33 17 38 13 17 -11 l-19 -22 28 17 c28 18
38 8 12 -13 -8 -7 -15 -17 -15 -23 0 -5 9 -2 20 8 11 10 22 16 25 13 3 -3 -4
-13 -15 -23 -11 -10 -20 -23 -20 -29 0 -15 69 54 86 86 17 34 29 131 18 150
-7 11 -16 6 -43 -24z"/>
<path d="M3490 4494 c-16 -8 -40 -11 -63 -7 -33 5 -43 1 -87 -36 -27 -22 -58
-41 -69 -41 -13 0 -30 -17 -53 -55 -18 -30 -38 -55 -45 -55 -7 0 -26 -28 -42
-62 -16 -35 -38 -69 -50 -76 -15 -9 -21 -22 -21 -50 0 -21 -6 -47 -14 -58 -8
-11 -17 -41 -21 -67 -4 -26 -11 -47 -15 -47 -5 0 -7 -33 -6 -72 1 -60 7 -82
30 -121 19 -32 27 -57 24 -77 -4 -24 2 -36 31 -62 33 -32 34 -32 13 -4 -28 37
-23 42 22 21 46 -22 54 -35 32 -51 -16 -11 -13 -15 27 -38 86 -51 154 -69 262
-69 63 0 115 6 140 15 l40 15 -38 7 c-21 4 -35 11 -32 17 10 16 75 39 109 39
l31 -1 -28 -24 c-39 -35 -21 -31 33 6 60 42 116 111 165 202 l40 75 -25 20
c-22 18 -23 22 -12 58 6 22 8 42 3 48 -5 6 -12 29 -16 51 -4 22 -11 45 -15 50
-5 6 -15 36 -23 67 -8 32 -22 64 -30 73 -8 8 -23 37 -32 65 -9 27 -23 50 -30
50 -7 0 -30 29 -51 64 -21 35 -43 62 -49 60 -5 -2 -33 16 -60 40 -48 41 -52
43 -75 30z m-80 -48 c0 -14 -67 -43 -76 -33 -7 7 46 47 62 47 8 0 14 -6 14
-14z m145 -6 c19 -22 15 -23 -34 -14 -17 4 -31 13 -31 20 0 21 44 17 65 -6z
m-52 -41 c20 -5 37 -16 37 -22 0 -22 -77 -90 -94 -84 -29 11 -105 72 -102 81
3 12 64 34 96 35 14 1 42 -4 63 -10z m-202 -35 c11 -14 9 -19 -11 -34 -14 -11
-33 -21 -43 -24 -16 -4 -18 0 -12 22 13 51 41 66 66 36z m350 -32 c13 -33 7
-36 -35 -22 -39 12 -47 33 -19 48 23 13 43 4 54 -26z m-17 -57 l37 -16 -30
-38 c-50 -62 -57 -66 -88 -46 -29 19 -73 65 -73 77 0 7 77 36 101 37 9 1 33
-6 53 -14z m-294 -6 c32 -7 50 -16 50 -25 0 -9 -20 -36 -44 -61 l-44 -47 -53
51 -53 51 40 20 c47 25 41 25 104 11z m-155 -10 c4 -5 -1 -19 -11 -30 -20 -23
-35 -25 -29 -4 3 8 7 22 10 30 5 17 21 20 30 4z m546 -25 c5 -15 7 -29 4 -32
-7 -8 -45 29 -45 45 0 23 30 14 41 -13z m-5 -108 c-7 -39 -17 -39 -68 -4 -36
25 -35 34 4 58 32 19 33 19 52 1 14 -15 17 -27 12 -55z m-501 5 c0 -7 -19 -24
-42 -37 l-41 -25 -7 41 c-6 34 -4 44 12 55 15 12 22 11 48 -4 17 -9 30 -23 30
-30z m288 23 c26 -9 50 -20 53 -26 8 -12 -81 -98 -102 -98 -22 0 -134 82 -130
95 3 12 83 44 112 44 11 1 41 -6 67 -15z m-396 -30 c7 -18 -12 -64 -27 -64 -5
0 -10 11 -10 24 0 49 23 75 37 40z m660 4 c13 -17 23 -58 14 -58 -15 0 -53 49
-46 59 8 14 20 14 32 -1z m-56 -79 c27 -12 49 -24 49 -28 0 -4 -20 -27 -45
-51 l-45 -44 -34 18 c-47 25 -102 84 -90 95 5 6 32 14 59 19 28 5 51 10 53 11
2 0 26 -9 53 -20z m-418 -4 c20 -3 37 -10 37 -15 0 -15 -50 -68 -86 -91 l-35
-21 -46 39 c-26 22 -48 44 -50 50 -5 15 87 53 117 48 14 -2 42 -6 63 -10z
m-219 -24 c3 -5 -3 -20 -14 -32 l-19 -24 -1 26 c0 35 20 53 34 30z m744 -36
c4 -30 4 -30 -17 -11 -26 23 -28 49 -3 44 10 -2 18 -14 20 -33z m-333 -25 c3
-5 16 -10 29 -10 12 0 31 -6 42 -14 18 -14 18 -16 -16 -51 -19 -20 -48 -43
-63 -51 -27 -14 -30 -13 -90 28 -34 24 -62 50 -62 58 0 8 16 19 37 25 20 5 40
13 44 18 11 11 72 9 79 -3z m-394 -30 c10 0 19 -7 19 -15 0 -20 -40 -75 -54
-75 -11 0 -36 45 -36 65 0 18 23 36 38 30 8 -3 22 -5 33 -5z m723 -3 c20 -15
13 -65 -11 -74 -16 -6 -73 43 -73 63 0 23 58 30 84 11z m-485 -78 c28 -12 50
-27 48 -33 -6 -18 -110 -85 -134 -85 -23 -1 -113 76 -113 97 0 12 80 39 121
41 15 1 50 -9 78 -20z m363 -10 c29 -6 57 -15 62 -20 10 -9 -55 -93 -85 -109
-16 -9 -33 -3 -89 27 -38 21 -70 43 -70 49 0 9 102 62 122 64 4 0 31 -5 60
-11z m-594 -39 c37 -23 37 -39 2 -57 -28 -14 -40 -10 -63 23 -37 50 1 70 61
34z m767 10 c6 -10 -19 -65 -35 -75 -14 -9 -50 4 -50 18 0 15 51 67 66 67 7 0
16 -4 19 -10z m-342 -99 c15 -6 25 -16 22 -23 -6 -16 -96 -78 -112 -78 -15 0
-143 73 -143 82 0 4 21 14 48 22 50 16 139 14 185 -3z m271 -36 c-9 -14 -24
-25 -32 -23 -28 6 -24 27 10 48 38 23 47 13 22 -25z m-559 4 c30 -11 55 -24
55 -28 0 -8 -90 -51 -106 -51 -11 0 -93 64 -94 73 0 10 39 26 67 26 12 1 47
-8 78 -20z m473 -24 c7 -7 -44 -59 -72 -75 -20 -10 -33 -9 -75 5 -28 9 -51 21
-51 26 0 5 24 20 53 34 39 18 63 23 96 20 25 -3 47 -7 49 -10z m52 -24 c0 -21
-44 -62 -63 -59 -35 5 -30 26 10 47 43 23 53 25 53 12z m-350 -34 l35 -15 -54
-24 -54 -25 49 -12 c41 -11 46 -14 30 -23 -29 -16 -81 -13 -112 7 -16 11 -41
18 -55 16 -27 -2 -90 41 -78 54 11 10 93 -15 106 -32 6 -8 20 -13 30 -11 13 2
5 11 -30 31 -26 15 -47 30 -47 33 0 2 10 9 23 14 29 13 113 6 157 -13z m168
-33 c2 -1 -15 -15 -38 -30 -36 -24 -39 -29 -24 -35 15 -5 10 -8 -19 -14 -40
-8 -61 0 -37 15 9 6 2 12 -29 20 -50 13 -46 25 17 44 39 12 116 12 130 0z"/>
<path d="M2898 4468 c-14 -89 30 -226 90 -280 l25 -23 -23 40 -24 39 39 -29
40 -30 -23 29 c-31 40 -27 51 9 26 38 -28 47 -21 14 10 -30 28 -34 51 -5 25
11 -10 22 -16 25 -13 3 3 -1 11 -10 18 -27 22 -16 29 23 14 l37 -14 -35 27
c-70 55 -148 135 -163 165 l-14 30 -5 -34z"/>
<path d="M3979 4475 c-20 -35 -133 -146 -169 -165 -14 -7 -20 -15 -13 -17 7
-3 21 1 32 7 21 11 31 -3 11 -15 -5 -3 -10 -11 -10 -16 0 -5 12 -1 27 8 l28
18 -30 -39 c-28 -38 -21 -41 18 -8 28 25 30 7 2 -27 -29 -34 -20 -44 10 -11
25 28 30 18 9 -17 l-18 -28 23 20 c61 52 104 166 99 262 l-3 58 -16 -30z"/>
<path d="M4024 4242 c-28 -31 -77 -73 -107 -92 -63 -39 -72 -53 -27 -40 34 10
37 5 13 -24 -18 -20 -18 -20 9 -3 41 25 45 21 13 -13 -32 -33 -28 -39 10 -14
30 20 33 5 5 -21 -28 -25 -18 -30 16 -8 31 20 28 7 -10 -36 l-21 -24 28 18
c34 22 83 91 101 143 13 37 32 172 25 172 -2 0 -27 -26 -55 -58z"/>
<path d="M2290 4235 c131 -79 348 -156 479 -171 54 -6 61 -5 55 10 -4 10 -19
16 -38 17 l-31 1 30 8 c38 9 24 14 -80 30 -44 7 -87 16 -95 22 -10 6 -4 7 20
3 82 -14 170 -18 170 -6 0 6 -6 11 -12 11 -9 0 -8 3 2 10 21 13 8 16 -150 30
-119 11 -298 37 -370 56 -16 4 -9 -4 20 -21z"/>
<path d="M4595 4250 c-40 -16 -367 -60 -447 -60 -47 0 -65 -14 -30 -23 13 -4
11 -5 -5 -6 -13 0 -23 -6 -23 -12 0 -12 127 -7 180 7 14 4 22 4 18 -1 -9 -10
-125 -34 -165 -35 -40 0 -44 -19 -5 -21 24 -1 23 -2 -7 -8 -19 -3 -36 -12 -39
-20 -4 -11 7 -12 54 -7 126 15 346 93 469 166 47 28 46 39 0 20z"/>
<path d="M2675 4029 c-64 -12 -145 -39 -145 -47 0 -9 69 -40 129 -58 50 -16
161 -19 161 -5 0 6 -21 13 -47 16 -77 10 -81 13 -25 14 45 1 52 4 52 21 0 17
-7 20 -47 22 l-48 1 43 4 c34 3 42 8 42 24 0 22 -28 24 -115 8z"/>
<path d="M4102 4023 c2 -13 15 -19 43 -22 l40 -5 -45 -5 c-32 -4 -46 -11 -48
-23 -3 -15 5 -18 50 -19 29 -1 42 -3 28 -6 -77 -11 -90 -15 -90 -23 0 -13 96
-12 145 1 56 15 135 50 135 59 0 12 -47 28 -128 45 -100 21 -134 20 -130 -2z"/>
<path d="M2829 3965 c20 -70 62 -140 95 -157 18 -9 18 -7 -4 17 l-25 28 25
-13 25 -13 -20 23 -20 23 20 -7 c16 -6 18 -5 8 5 -18 18 -16 34 2 19 18 -15
20 1 3 18 -9 9 -8 12 8 12 13 1 8 6 -17 20 -21 11 -54 35 -74 55 -21 19 -39
35 -41 35 -1 0 5 -29 15 -65z"/>
<path d="M4049 4004 c-13 -14 -46 -39 -74 -55 -43 -25 -51 -35 -22 -30 11 2 8
-14 -5 -28 -11 -10 -9 -11 7 -5 18 7 19 6 6 -9 -12 -16 -12 -17 5 -11 19 7 19
7 0 -14 -20 -23 -10 -30 14 -9 8 6 7 3 -3 -9 -24 -29 -21 -41 4 -18 36 31 68
91 84 151 8 31 13 58 12 60 -2 1 -14 -9 -28 -23z"/>
<path d="M2710 3865 c-79 -26 -108 -40 -99 -49 3 -3 33 -12 67 -21 67 -17 211
-17 202 0 -3 5 -30 9 -60 8 -30 -1 -44 1 -30 3 59 11 70 15 70 29 0 10 -11 15
-32 16 -24 1 -27 3 -10 6 12 2 22 11 22 19 0 21 -43 17 -130 -11z"/>
<path d="M4057 3883 c-13 -12 -7 -22 16 -26 19 -4 19 -4 -5 -6 -27 -1 -45 -17
-34 -29 4 -3 28 -9 54 -13 46 -7 46 -7 -13 -6 -35 1 -60 -2 -60 -8 0 -15 183
-10 235 7 l45 14 -40 21 c-36 18 -155 53 -181 53 -6 0 -14 -3 -17 -7z"/>
<path d="M2920 3771 c-14 -5 -50 -16 -80 -25 -31 -8 -64 -22 -75 -30 -18 -13
-17 -15 24 -26 78 -21 164 -31 203 -25 53 9 47 25 -9 26 -45 2 -46 2 -13 8 22
4 35 12 35 21 0 11 -11 15 -45 13 l-45 -2 38 11 c21 5 36 15 34 22 -5 14 -35
17 -67 7z"/>
<path d="M3907 3766 c-4 -10 6 -18 31 -25 l37 -11 -42 5 c-26 3 -43 1 -43 -5
0 -5 0 -13 0 -17 -1 -5 16 -11 37 -14 36 -6 35 -6 -14 -8 -64 -1 -70 -17 -9
-26 44 -7 190 15 223 33 14 8 12 12 -14 25 -30 16 -167 57 -189 57 -7 0 -14
-6 -17 -14z"/>
<path d="M4061 3184 c-101 -29 -186 -56 -189 -59 -3 -3 94 -5 216 -5 121 0
223 3 225 8 2 4 -2 31 -11 60 -12 42 -18 52 -36 51 -11 -1 -104 -25 -205 -55z"/>
<path d="M1652 2839 c-114 -232 -147 -280 -207 -295 -29 -7 -30 -10 -10 -30
32 -33 18 -84 -74 -271 -83 -169 -138 -249 -174 -255 -7 -1 58 -5 143 -8 85
-3 158 -4 162 -2 4 2 -2 13 -13 25 -26 27 -22 68 14 150 l26 57 230 0 229 0
31 -74 c35 -85 38 -112 14 -138 -16 -17 -10 -18 146 -18 l163 0 -46 43 c-36
33 -62 75 -121 194 -92 188 -110 239 -96 276 6 15 15 27 21 27 22 0 8 17 -24
28 -19 7 -46 25 -61 40 -23 22 -105 182 -227 442 l-16 35 -110 -226z m178
-300 c41 -94 77 -175 78 -180 2 -5 -67 -9 -157 -9 -89 0 -161 3 -161 7 0 13
155 353 160 353 3 0 39 -77 80 -171z"/>
<path d="M3920 3017 c-90 -31 -156 -71 -218 -134 -56 -58 -114 -161 -133 -238
-13 -50 -52 -105 -75 -105 -8 0 -14 -4 -14 -10 0 -5 7 -10 15 -10 22 0 52 -54
60 -109 18 -121 96 -268 176 -333 108 -87 203 -120 343 -120 104 0 156 11 239
53 146 72 256 217 285 379 15 78 27 107 57 126 l26 17 -29 14 c-29 14 -54 58
-67 117 -21 99 -118 233 -212 292 -129 84 -315 108 -453 61z m314 -172 c260
-132 257 -563 -5 -694 -79 -39 -148 -47 -230 -27 -112 29 -197 104 -241 214
-18 46 -22 77 -22 162 0 96 3 111 31 172 40 86 111 158 184 187 82 32 204 26
283 -14z"/>
<path d="M2013 2981 c29 -26 59 -76 114 -189 85 -175 97 -221 63 -245 l-22
-15 40 -21 c62 -31 92 -79 213 -334 62 -130 115 -237 119 -237 3 0 56 102 116
227 122 253 159 311 223 346 38 22 41 26 23 31 -11 4 -23 19 -27 33 -9 38 133
330 192 393 l41 45 -144 1 -143 1 14 -21 c22 -31 19 -50 -29 -155 -177 -385
-255 -553 -260 -558 -3 -3 -10 5 -15 18 -10 27 -124 281 -178 399 -59 128
-103 238 -103 259 0 12 8 29 18 39 16 16 10 17 -139 18 l-156 1 40 -36z"/>
<path d="M3156 2984 c39 -41 44 -65 44 -233 0 -119 -3 -140 -21 -170 -11 -18
-29 -35 -40 -38 -25 -7 -24 -20 1 -28 11 -4 29 -24 40 -45 17 -34 20 -59 20
-192 0 -176 -9 -219 -55 -265 l-33 -33 177 1 c122 0 170 3 156 10 -11 6 -31
26 -45 46 -24 35 -25 45 -28 202 -2 91 -1 180 3 198 3 19 21 48 42 68 22 21
30 35 21 35 -8 0 -25 12 -39 26 -24 25 -24 29 -24 204 l0 179 32 33 33 34
-158 0 -157 0 31 -32z"/>
<path d="M4744 2991 c39 -41 46 -74 46 -220 0 -155 -9 -195 -52 -221 l-30 -18
25 -17 c46 -29 57 -80 57 -248 0 -177 -8 -214 -55 -256 l-35 -30 175 -3 c96
-2 175 -2 175 0 0 2 -14 15 -30 29 -59 49 -60 54 -60 377 l0 296 43 -48 c55
-62 220 -243 328 -362 47 -52 137 -151 199 -220 62 -69 117 -126 121 -128 5
-2 9 113 9 255 0 226 2 262 18 293 9 19 27 39 40 45 24 11 30 25 9 25 -8 0
-24 12 -38 26 -23 25 -24 32 -27 186 -2 89 -1 172 3 185 3 14 19 37 35 51 l29
27 -160 1 c-140 1 -157 -1 -139 -13 51 -36 55 -57 58 -368 l3 -290 -38 40
c-21 22 -117 128 -213 235 -96 107 -183 204 -194 215 -40 44 -76 99 -76 119 0
12 6 30 14 41 13 20 11 20 -125 21 l-139 1 24 -26z"/>
<path d="M5768 2063 c6 -2 18 -2 25 0 6 3 1 5 -13 5 -14 0 -19 -2 -12 -5z"/>
<path d="M5729 2043 c-13 -16 -12 -17 4 -4 16 13 21 21 13 21 -2 0 -10 -8 -17
-17z"/>
<path d="M5821 2038 c9 -22 9 -34 0 -55 -10 -26 -10 -27 4 -9 8 11 15 27 15
36 0 9 -7 25 -15 36 -14 18 -14 17 -4 -8z"/>
<path d="M5763 2043 c-15 -6 -18 -63 -3 -63 6 0 10 5 10 11 0 8 4 8 14 0 11
-9 15 -7 19 11 4 12 1 28 -5 35 -11 14 -15 14 -35 6z m27 -23 c0 -5 -4 -10
-10 -10 -5 0 -10 5 -10 10 0 6 5 10 10 10 6 0 10 -4 10 -10z"/>
<path d="M5720 1993 c0 -21 31 -43 58 -42 l27 2 -27 4 c-15 2 -35 14 -43 26
-8 12 -15 16 -15 10z"/>
<path d="M2430 1663 c0 -32 1 -33 45 -33 l45 0 0 -95 0 -95 40 0 40 0 0 95 0
95 45 0 c44 0 45 1 45 33 l0 32 -130 0 -130 0 0 -32z"/>
<path d="M2895 1690 l-120 -5 0 -123 0 -122 123 0 122 0 0 33 0 32 -86 -3
c-84 -3 -86 -3 -82 19 3 21 8 23 56 23 50 -1 52 0 52 25 0 25 -1 26 -56 23
-53 -4 -56 -3 -52 20 3 22 7 23 86 23 l82 0 0 33 c0 17 -1 31 -2 30 -2 -1 -57
-5 -123 -8z"/>
<path d="M3188 1688 c-41 -11 -84 -55 -95 -96 -9 -36 17 -101 49 -125 19 -14
48 -22 90 -25 51 -3 67 -8 83 -27 19 -23 21 -23 42 -5 22 17 22 18 3 35 -18
16 -18 17 6 52 27 40 30 79 10 127 -22 54 -114 85 -188 64z m115 -79 c18 -23
22 -56 8 -78 -6 -10 -13 -11 -29 -2 -11 6 -31 11 -43 11 l-22 0 23 -25 23 -25
-22 0 c-52 0 -87 46 -75 96 13 53 100 67 137 23z"/>
<path d="M3830 1568 l0 -128 40 0 40 0 0 124 0 124 -40 4 -40 4 0 -128z"/>
<path d="M3472 1595 c4 -87 6 -98 31 -122 37 -37 136 -44 185 -14 42 27 52 55
52 152 l0 79 -37 0 -38 0 3 -70 c4 -88 -12 -120 -61 -120 -50 0 -57 14 -57
107 l0 83 -41 0 -41 0 4 -95z"/>
<path d="M4015 1565 l0 -125 91 0 c88 0 91 1 102 25 7 14 12 29 12 33 0 4 -30
5 -66 4 l-65 -4 3 96 3 96 -40 0 -40 0 0 -125z"/>
<path d="M4312 1583 c-22 -60 -43 -116 -47 -125 -6 -15 -2 -18 27 -18 28 0 35
5 45 30 11 28 14 30 67 30 55 0 57 -1 63 -30 5 -27 9 -30 44 -30 22 0 39 3 39
7 0 5 -21 61 -47 125 l-48 118 -51 0 -51 0 -41 -107z m112 4 c9 -23 16 -46 16
-50 0 -10 -68 -9 -74 2 -7 10 24 91 34 91 4 0 15 -19 24 -43z"/>
</g>
</svg>
